<svg xmlns="http://www.w3.org/2000/svg" width="72" height="72" fill="none" viewBox="0 0 72 72">
  <g filter="url(#a)">
    <rect width="30.216" height="30.791" x="14.541" y="34.404" fill="#fff" rx="15.108" transform="rotate(-43.84 14.541 34.404)"/>
    <rect width="30.216" height="30.791" x="14.541" y="34.404" stroke="#8809AE" stroke-width=".247" rx="15.108" transform="rotate(-43.84 14.541 34.404)"/>
    <path fill="#8809AE" stroke="#8809AE" stroke-width=".344" d="m36.66 40.577.04.01 6.91 1.787a1.758 1.758 0 0 0 1.838-.613 1.755 1.755 0 0 0 .186-1.927l-7.147-13.808a1.78 1.78 0 0 0-3.13-.075l-7.74 13.483a1.758 1.758 0 0 0 .107 1.933c.42.579 1.112.845 1.81.7l7.127-1.49Zm0 0-.038.008-7.088 1.481 7.127-1.49Zm.58-1.126-.002.135.132.034 6.517 1.686c.383.1.618-.134.697-.233a.661.661 0 0 0 .07-.732l-7.147-13.809a.676.676 0 0 0-.592-.37.667.667 0 0 0-.599.336v.002l-7.74 13.482a.664.664 0 0 0 .04.736h.001a.67.67 0 0 0 .69.27l.001-.001L36 39.588l.135-.028.002-.138.109-7.274a.553.553 0 0 1 1.105.016l.164.003-.164-.003-.11 7.287Z"/>
  </g>
  <defs>
    <filter id="a" width="70.84" height="70.856" x=".682" y=".757" color-interpolation-filters="sRGB" filterUnits="userSpaceOnUse">
      <feFlood flood-opacity="0" result="BackgroundImageFix"/>
      <feColorMatrix in="SourceAlpha" result="hardAlpha" values="0 0 0 0 0 0 0 0 0 0 0 0 0 0 0 0 0 0 127 0"/>
      <feOffset dy="1.14"/>
      <feGaussianBlur stdDeviation="6.842"/>
      <feComposite in2="hardAlpha" operator="out"/>
      <feColorMatrix values="0 0 0 0 0 0 0 0 0 0 0 0 0 0 0 0 0 0 0.1 0"/>
      <feBlend in2="BackgroundImageFix" result="effect1_dropShadow_415_202"/>
      <feBlend in="SourceGraphic" in2="effect1_dropShadow_415_202" result="shape"/>
    </filter>
  </defs>
</svg>
